<svg xmlns="http://www.w3.org/2000/svg" width="8.486" height="8.486" viewBox="0 0 8.486 8.486">
  <g id="Union_" data-name="Union " transform="translate(986.414 -982.171) rotate(-45)" fill="#fff">
    <path d="M -1389.999633789063 5.50029993057251 L -1394.000122070313 5.50029993057251 C -1394.275756835938 5.50029993057251 -1394.5 5.276050090789795 -1394.5 5.000400066375732 C -1394.5 4.724259853363037 -1394.275756835938 4.499599933624268 -1394.000122070313 4.499599933624268 L -1391.00048828125 4.499599933624268 L -1390.50048828125 4.499599933624268 L -1390.50048828125 3.999599933624268 L -1390.50048828125 0.9998999834060669 C -1390.50048828125 0.7242499589920044 -1390.275756835938 0.4999999701976776 -1389.999633789063 0.4999999701976776 C -1389.723999023438 0.4999999701976776 -1389.499755859375 0.7242499589920044 -1389.499755859375 0.9998999834060669 L -1389.499755859375 5.000400066375732 C -1389.499755859375 5.276050090789795 -1389.723999023438 5.50029993057251 -1389.999633789063 5.50029993057251 Z" stroke="none"/>
    <path d="M -1389.999633789063 5.00029993057251 L -1389.999755859375 5.000400066375732 L -1390.00048828125 0.9998999834060669 L -1390.00048828125 3.999599933624268 L -1390.00048828125 4.999599933624268 L -1391.00048828125 4.999599933624268 L -1394.000122070313 5.00029993057251 L -1389.999633789063 5.00029993057251 M -1389.999633789063 6.00029993057251 L -1394.000122070313 6.00029993057251 C -1394.551879882813 6.00029993057251 -1395 5.55210018157959 -1395 5.000400066375732 C -1395 4.447800159454346 -1394.551879882813 3.999599933624268 -1394.000122070313 3.999599933624268 L -1391.00048828125 3.999599933624268 L -1391.00048828125 0.9998999834060669 C -1391.00048828125 0.4472999572753906 -1390.55224609375 -3.471374654395731e-08 -1389.999633789063 -3.471374654395731e-08 C -1389.447875976563 -3.471374654395731e-08 -1388.999755859375 0.4472999572753906 -1388.999755859375 0.9998999834060669 L -1388.999755859375 5.000400066375732 C -1388.999755859375 5.55210018157959 -1389.447875976563 6.00029993057251 -1389.999633789063 6.00029993057251 Z" stroke="none" fill="#fff"/>
  </g>
</svg>
