<svg width="12" height="8" viewBox="0 0 12 8" fill="none" xmlns="http://www.w3.org/2000/svg">
<path d="M10.2142 2.92492C10.7271 2.38646 10.7271 1.51344 10.2142 0.974973C9.70139 0.43651 8.8699 0.43651 8.35704 0.974973L4.64264 4.87487C4.12979 5.41333 4.12979 6.28635 4.64264 6.82481C5.15549 7.36328 5.98699 7.36328 6.49984 6.82481L10.2142 2.92492Z" fill="white"/>
<path d="M9.74994 2.43756C10.0064 2.16833 10.0064 1.73182 9.74994 1.46258C9.49352 1.19335 9.07777 1.19335 8.82134 1.46258L5.10694 5.36248C4.85051 5.63171 4.85051 6.06822 5.10694 6.33745C5.36337 6.60668 5.77912 6.60668 6.03554 6.33745L9.74994 2.43756Z" stroke="white"/>
<path d="M4.64291 6.82556C5.15576 7.36402 5.98726 7.36402 6.50011 6.82556C7.01296 6.2871 7.01296 5.41408 6.50011 4.87561L2.78571 0.97572C2.27286 0.437257 1.44136 0.437257 0.928506 0.97572C0.415654 1.51418 0.415654 2.3872 0.928506 2.92567L4.64291 6.82556Z" fill="white"/>
<path d="M5.10734 6.33807C5.36377 6.6073 5.77952 6.6073 6.03594 6.33807C6.29237 6.06884 6.29237 5.63233 6.03594 5.3631L2.32154 1.46321C2.06511 1.19397 1.64936 1.19397 1.39294 1.46321C1.13651 1.73244 1.13651 2.16895 1.39294 2.43818L5.10734 6.33807Z" stroke="white"/>
</svg>
