<svg width="7" height="11" viewBox="0 0 7 11" fill="none" xmlns="http://www.w3.org/2000/svg">
<path d="M2.70259 0.934723C2.22798 0.45803 1.45848 0.45803 0.983872 0.934723C0.50926 1.41142 0.50926 2.18429 0.983872 2.66098L4.42131 6.11349C4.89592 6.59019 5.66542 6.59019 6.14003 6.1135C6.61464 5.6368 6.61464 4.86393 6.14003 4.38724L2.70259 0.934723Z" fill="white"/>
<path d="M2.27292 1.36628C2.03562 1.12794 1.65087 1.12794 1.41357 1.36628C1.17626 1.60463 1.17626 1.99107 1.41357 2.22942L4.851 5.68196C5.08831 5.92031 5.47305 5.92031 5.71036 5.68196C5.94766 5.44361 5.94766 5.05717 5.71036 4.81882L2.27292 1.36628Z" stroke="white" stroke-width="0.5"/>
<path d="M6.14061 6.11282C6.61522 5.63613 6.61522 4.86326 6.14061 4.38657C5.666 3.90987 4.8965 3.90987 4.42189 4.38657L0.984452 7.83908C0.50984 8.31577 0.50984 9.08865 0.984452 9.56534C1.45906 10.042 2.22856 10.042 2.70317 9.56534L6.14061 6.11282Z" fill="white"/>
<path d="M5.71093 5.68045C5.94824 5.4421 5.94824 5.05566 5.71093 4.81731C5.47363 4.57896 5.08887 4.57896 4.85157 4.81731L1.4141 8.26986C1.17679 8.50821 1.17679 8.89465 1.4141 9.133C1.65141 9.37135 2.03616 9.37135 2.27347 9.133L5.71093 5.68045Z" stroke="white" stroke-width="0.5"/>
</svg>
