<svg width="12" height="8" viewBox="0 0 12 8" fill="none" xmlns="http://www.w3.org/2000/svg">
<path d="M0.928821 4.87537C0.415969 5.41384 0.415969 6.28686 0.928821 6.82532C1.44167 7.36378 2.27317 7.36378 2.78602 6.82532L6.50043 2.92543C7.01328 2.38696 7.01328 1.51394 6.50043 0.97548C5.98757 0.437017 5.15608 0.437017 4.64322 0.97548L0.928821 4.87537Z" fill="white"/>
<path d="M1.39312 5.36274C1.1367 5.63197 1.1367 6.06848 1.39312 6.33771C1.64955 6.60694 2.0653 6.60694 2.32172 6.33771L6.03613 2.43782C6.29255 2.16858 6.29255 1.73207 6.03613 1.46284C5.7797 1.19361 5.36395 1.19361 5.10753 1.46284L1.39312 5.36274Z" stroke="white"/>
<path d="M6.50016 0.974734C5.98731 0.436271 5.15581 0.436271 4.64296 0.974734C4.1301 1.5132 4.1301 2.38622 4.64296 2.92468L8.35736 6.82457C8.87021 7.36304 9.70171 7.36304 10.2146 6.82457C10.7274 6.28611 10.7274 5.41309 10.2146 4.87463L6.50016 0.974734Z" fill="white"/>
<path d="M6.03572 1.46222C5.7793 1.19299 5.36355 1.19299 5.10712 1.46222C4.8507 1.73145 4.8507 2.16796 5.10712 2.43719L8.82153 6.33709C9.07795 6.60632 9.4937 6.60632 9.75013 6.33709C10.0066 6.06786 10.0066 5.63135 9.75013 5.36211L6.03572 1.46222Z" stroke="white"/>
</svg>
