<svg id="calendar" xmlns="http://www.w3.org/2000/svg" width="32" height="32" viewBox="0 0 32 32">
  <g id="Group_4212" data-name="Group 4212">
    <g id="Group_4211" data-name="Group 4211">
      <path id="Path_14267" data-name="Path 14267" d="M28.25,2.5h-1.5V0h-2.5V2.5H7.75V0H5.25V2.5H3.75A3.754,3.754,0,0,0,0,6.25v22A3.754,3.754,0,0,0,3.75,32h24.5A3.754,3.754,0,0,0,32,28.25v-22A3.754,3.754,0,0,0,28.25,2.5ZM29.5,28.25a1.251,1.251,0,0,1-1.25,1.25H3.75A1.251,1.251,0,0,1,2.5,28.25V11.75h27Zm0-19H2.5v-3A1.251,1.251,0,0,1,3.75,5h1.5V7.5h2.5V5h16.5V7.5h2.5V5h1.5A1.251,1.251,0,0,1,29.5,6.25Z" fill="#4d596e"/>
    </g>
  </g>
  <g id="Group_4214" data-name="Group 4214" transform="translate(4.655 14.255)">
    <g id="Group_4213" data-name="Group 4213" transform="translate(0 0)">
      <rect id="Rectangle_17423" data-name="Rectangle 17423" width="2" height="3" transform="translate(0.345 -0.255)" fill="#4d596e"/>
    </g>
  </g>
  <g id="Group_4216" data-name="Group 4216" transform="translate(9.891 14.255)">
    <g id="Group_4215" data-name="Group 4215" transform="translate(0 0)">
      <rect id="Rectangle_17424" data-name="Rectangle 17424" width="2" height="3" transform="translate(0.109 -0.255)" fill="#4d596e"/>
    </g>
  </g>
  <g id="Group_4218" data-name="Group 4218" transform="translate(14.836 14.255)">
    <g id="Group_4217" data-name="Group 4217" transform="translate(0 0)">
      <rect id="Rectangle_17425" data-name="Rectangle 17425" width="2" height="3" transform="translate(0.164 -0.255)" fill="#4d596e"/>
    </g>
  </g>
  <g id="Group_4220" data-name="Group 4220" transform="translate(19.782 14.255)">
    <g id="Group_4219" data-name="Group 4219" transform="translate(0 0)">
      <rect id="Rectangle_17426" data-name="Rectangle 17426" width="2" height="3" transform="translate(0.218 -0.255)" fill="#4d596e"/>
    </g>
  </g>
  <g id="Group_4222" data-name="Group 4222" transform="translate(24.727 14.255)">
    <g id="Group_4221" data-name="Group 4221" transform="translate(0 0)">
      <rect id="Rectangle_17427" data-name="Rectangle 17427" width="2" height="3" transform="translate(0.273 -0.255)" fill="#4d596e"/>
    </g>
  </g>
  <g id="Group_4224" data-name="Group 4224" transform="translate(4.655 19.491)">
    <g id="Group_4223" data-name="Group 4223" transform="translate(0 0)">
      <rect id="Rectangle_17428" data-name="Rectangle 17428" width="2" height="3" transform="translate(0.345 -0.491)" fill="#4d596e"/>
    </g>
  </g>
  <g id="Group_4226" data-name="Group 4226" transform="translate(9.891 19.491)">
    <g id="Group_4225" data-name="Group 4225" transform="translate(0 0)">
      <rect id="Rectangle_17429" data-name="Rectangle 17429" width="2" height="3" transform="translate(0.109 -0.491)" fill="#4d596e"/>
    </g>
  </g>
  <g id="Group_4228" data-name="Group 4228" transform="translate(14.836 19.491)">
    <g id="Group_4227" data-name="Group 4227" transform="translate(0 0)">
      <rect id="Rectangle_17430" data-name="Rectangle 17430" width="2" height="3" transform="translate(0.164 -0.491)" fill="#4d596e"/>
    </g>
  </g>
  <g id="Group_4230" data-name="Group 4230" transform="translate(19.782 19.491)">
    <g id="Group_4229" data-name="Group 4229" transform="translate(0 0)">
      <rect id="Rectangle_17431" data-name="Rectangle 17431" width="2" height="3" transform="translate(0.218 -0.491)" fill="#4d596e"/>
    </g>
  </g>
  <g id="Group_4232" data-name="Group 4232" transform="translate(4.655 24.436)">
    <g id="Group_4231" data-name="Group 4231" transform="translate(0 0)">
      <rect id="Rectangle_17432" data-name="Rectangle 17432" width="2" height="3" transform="translate(0.345 -0.437)" fill="#4d596e"/>
    </g>
  </g>
  <g id="Group_4234" data-name="Group 4234" transform="translate(9.891 24.436)">
    <g id="Group_4233" data-name="Group 4233" transform="translate(0 0)">
      <rect id="Rectangle_17433" data-name="Rectangle 17433" width="2" height="3" transform="translate(0.109 -0.437)" fill="#4d596e"/>
    </g>
  </g>
  <g id="Group_4236" data-name="Group 4236" transform="translate(14.836 24.436)">
    <g id="Group_4235" data-name="Group 4235" transform="translate(0 0)">
      <rect id="Rectangle_17434" data-name="Rectangle 17434" width="2" height="3" transform="translate(0.164 -0.437)" fill="#4d596e"/>
    </g>
  </g>
  <g id="Group_4238" data-name="Group 4238" transform="translate(19.782 24.436)">
    <g id="Group_4237" data-name="Group 4237" transform="translate(0 0)">
      <rect id="Rectangle_17435" data-name="Rectangle 17435" width="2" height="3" transform="translate(0.218 -0.437)" fill="#4d596e"/>
    </g>
  </g>
  <g id="Group_4240" data-name="Group 4240" transform="translate(24.727 19.491)">
    <g id="Group_4239" data-name="Group 4239" transform="translate(0 0)">
      <rect id="Rectangle_17436" data-name="Rectangle 17436" width="2" height="3" transform="translate(0.273 -0.491)" fill="#4d596e"/>
    </g>
  </g>
</svg>
