<svg xmlns="http://www.w3.org/2000/svg" width="22.543" height="22.544" viewBox="0 0 22.543 22.544">
  <path id="discover" d="M22.546,11.272A11.271,11.271,0,0,1,11.275,22.543a11.372,11.372,0,0,1-1.957-.169.881.881,0,1,1,.3-1.735,9.52,9.52,0,0,0,11.164-9.367A9.641,9.641,0,0,0,20.7,9.981a.881.881,0,0,1,1.745-.237,11.406,11.406,0,0,1,.1,1.527ZM17.9,4.95a34.4,34.4,0,0,1-5.72,7.192,33.5,33.5,0,0,1-7.263,5.727A2.508,2.508,0,0,1,3.04,18.1a2.479,2.479,0,0,1-1.505-1.149A11.274,11.274,0,0,1,17,1.559a2.507,2.507,0,0,1,.9,3.391ZM16.1,3.075a9.6,9.6,0,0,0-4.827-1.314,9.513,9.513,0,0,0-8.219,14.3.75.75,0,0,0,1.007.268,31.754,31.754,0,0,0,6.87-5.431,32.653,32.653,0,0,0,5.432-6.813A.748.748,0,0,0,16.1,3.075ZM3.234,22.439a12.4,12.4,0,0,0,3.325-1.325,37.741,37.741,0,0,0,8.2-6.36,37.74,37.74,0,0,0,6.36-8.2,12.4,12.4,0,0,0,1.325-3.325A2.791,2.791,0,0,0,21.929.578,2.317,2.317,0,0,0,19.885.034a.881.881,0,0,0,.231,1.746c.38-.05.539.015.568.044.071.071.169.383.032,1.059A10.876,10.876,0,0,1,19.57,5.714a35.951,35.951,0,0,1-6.059,7.794,35.95,35.95,0,0,1-7.794,6.059,10.875,10.875,0,0,1-2.832,1.146c-.675.137-.988.039-1.059-.032s-.089-.274-.031-.628a.881.881,0,0,0-1.738-.287,2.354,2.354,0,0,0,.523,2.16,2.3,2.3,0,0,0,1.7.617A4.847,4.847,0,0,0,3.234,22.439Z" transform="translate(-0.003 0)" fill="#4d596e"/>
</svg>
