<svg xmlns="http://www.w3.org/2000/svg" width="17.011" height="17.121" viewBox="0 0 17.011 17.121">
  <g id="eye-off" transform="translate(-0.049 -0.049)">
    <path id="Path_14257" data-name="Path 14257" d="M12.55,13.1A7.064,7.064,0,0,1,8.5,14.444C3.727,14.444,1,9.222,1,9.222A12.2,12.2,0,0,1,4.45,5.345M7.068,4.157A6.483,6.483,0,0,1,8.5,4C13.273,4,16,9.222,16,9.222A12.062,12.062,0,0,1,14.527,11.3m-4.582-.7a2.1,2.1,0,0,1-2,.562A2,2,0,0,1,6.467,9.755a1.9,1.9,0,0,1,.587-1.917" transform="translate(0 -0.667)" fill="none" stroke="#bbb8bb" stroke-linecap="round" stroke-linejoin="round" stroke-width="1.5"/>
    <line id="Line_38" data-name="Line 38" x2="14.89" y2="15" transform="translate(1.11 1.11)" fill="none" stroke="#bbb8bb" stroke-linecap="round" stroke-linejoin="round" stroke-width="1.5"/>
  </g>
</svg>
