<svg width="23" height="23" viewBox="0 0 23 23" fill="none" xmlns="http://www.w3.org/2000/svg">
<path d="M5.09728 13.8993L4.29668 16.8881L1.37052 16.95C0.496027 15.328 0 13.4722 0 11.5002C0 9.59318 0.463773 7.79487 1.28584 6.21143H1.28647L3.89158 6.68903L5.03277 9.27851C4.79392 9.97484 4.66374 10.7223 4.66374 11.5002C4.66383 12.3443 4.81674 13.1531 5.09728 13.8993Z" fill="#FBBB00"/>
<path d="M22.7992 9.35205C22.9312 10.0477 23.0001 10.7661 23.0001 11.5004C23.0001 12.3237 22.9135 13.1268 22.7486 13.9015C22.1888 16.5377 20.726 18.8395 18.6996 20.4685L18.699 20.4679L15.4177 20.3004L14.9533 17.4014C16.2979 16.6129 17.3488 15.3788 17.9023 13.9015H11.7529V9.35205H17.992H22.7992Z" fill="#518EF8"/>
<path d="M18.6989 20.4672L18.6996 20.4678C16.7288 22.0519 14.2253 22.9997 11.5001 22.9997C7.1206 22.9997 3.31298 20.5518 1.37061 16.9496L5.09736 13.8989C6.06853 16.4908 8.56883 18.3359 11.5001 18.3359C12.76 18.3359 13.9404 17.9953 14.9532 17.4007L18.6989 20.4672Z" fill="#28B446"/>
<path d="M18.8404 2.64751L15.1149 5.69752C14.0667 5.04229 12.8276 4.66378 11.5 4.66378C8.50244 4.66378 5.95538 6.59349 5.03286 9.27833L1.28652 6.21125H1.28589C3.19983 2.52115 7.05547 0 11.5 0C14.2904 0 16.8488 0.99394 18.8404 2.64751Z" fill="#F14336"/>
</svg>
