<svg xmlns="http://www.w3.org/2000/svg" width="25.442" height="37" viewBox="0 0 25.442 37">
  <g id="location-blip" transform="translate(-79.968 0.001)">
    <path id="Path_14263" data-name="Path 14263" d="M92.689,37a2.21,2.21,0,0,1-1.935-1.12l-.012-.022L81.567,19.063a12.881,12.881,0,0,1,.168-12.728A12.556,12.556,0,0,1,92.4,0c.189,0,.38,0,.569,0a12.556,12.556,0,0,1,10.669,6.333,12.881,12.881,0,0,1,.168,12.728L94.635,35.856l-.013.022A2.209,2.209,0,0,1,92.689,37Zm0-34.687-.238,0a10.261,10.261,0,0,0-8.715,5.181A10.586,10.586,0,0,0,83.6,17.954L92.689,34.6l9.092-16.642a10.585,10.585,0,0,0-.14-10.459,10.261,10.261,0,0,0-8.715-5.181l-.238,0Z" fill="#4d596e"/>
    <path id="Path_14264" data-name="Path 14264" d="M189.2,98.406a5.2,5.2,0,1,1,5.2-5.2A5.209,5.209,0,0,1,189.2,98.406Zm0-8.094a2.891,2.891,0,1,0,2.891,2.891A2.894,2.894,0,0,0,189.2,90.312Z" transform="translate(-96.515 -81.641)" fill="#4d596e"/>
  </g>
</svg>
