<svg width="24" height="30" viewBox="0 0 24 30" fill="none" xmlns="http://www.w3.org/2000/svg">
<path d="M23.379 23.8742C23.2909 23.817 22.6272 23.352 21.9626 21.9455C20.7421 19.3625 20.486 15.724 20.486 13.1265C20.486 13.1152 20.4857 13.104 20.4853 13.0927C20.472 9.65977 18.4164 6.70043 15.4747 5.37264V3.34195C15.4747 1.49918 13.978 0 12.1383 0H11.8618C10.0221 0 8.52535 1.49918 8.52535 3.34195V5.37252C5.57386 6.70459 3.51412 9.67904 3.51412 13.1265C3.51412 15.724 3.25795 19.3625 2.0375 21.9455C1.37298 23.352 0.709293 23.8169 0.621051 23.8742C0.249449 24.0462 0.0662267 24.4434 0.151715 24.846C0.238024 25.2526 0.618063 25.5329 1.03308 25.5329H7.47529C7.51127 28.0021 9.52654 30 12.0001 30C14.4736 30 16.4889 28.0021 16.5249 25.5329H22.9671C23.382 25.5329 23.7621 25.2526 23.8484 24.846C23.9338 24.4434 23.7506 24.0461 23.379 23.8742ZM10.2832 3.34195C10.2832 2.47002 10.9914 1.76068 11.8619 1.76068H12.1384C13.0088 1.76068 13.717 2.47002 13.717 3.34195V4.80193C13.1622 4.68727 12.5879 4.62691 11.9998 4.62691C11.4119 4.62691 10.8378 4.68721 10.2833 4.80176V3.34195H10.2832ZM12.0001 28.2393C10.4958 28.2393 9.26878 27.0313 9.2331 25.533H14.767C14.7314 27.0312 13.5044 28.2393 12.0001 28.2393ZM15.5391 23.7722C15.539 23.7722 3.03611 23.7722 3.03611 23.7722C3.18816 23.5352 3.34291 23.2669 3.49671 22.9637C4.67468 20.6409 5.27199 17.3312 5.27199 13.1265C5.27199 9.41062 8.29009 6.3876 11.9998 6.3876C15.7095 6.3876 18.7276 9.41062 18.7276 13.1294C18.7276 13.1402 18.7277 13.151 18.7282 13.1618C18.7315 17.3496 19.3287 20.6474 20.5034 22.9637C20.6572 23.267 20.812 23.5352 20.964 23.7722H15.5391Z" fill="white"/>
</svg>
