<svg width="21" height="26" viewBox="0 0 21 26" fill="none" xmlns="http://www.w3.org/2000/svg">
<path d="M20.0441 20.9299L18.9141 6.69593C18.8782 6.25155 18.6769 5.83683 18.3498 5.53385C18.0228 5.23088 17.5939 5.06174 17.1481 5.05993H14.9181V4.95993C14.9273 4.31194 14.8077 3.66858 14.5661 3.06724C14.3246 2.4659 13.9659 1.91856 13.5109 1.45706C13.056 0.995556 12.5138 0.629084 11.916 0.378948C11.3182 0.128812 10.6766 0 10.0286 0C9.38051 0 8.73893 0.128812 8.1411 0.378948C7.54327 0.629084 7.00113 0.995556 6.54617 1.45706C6.09122 1.91856 5.73254 2.4659 5.49098 3.06724C5.24942 3.66858 5.1298 4.31194 5.13906 4.95993V5.05993H2.90706C2.46156 5.0617 2.03295 5.23056 1.70595 5.53312C1.37895 5.83567 1.17737 6.24991 1.14106 6.69393L0.0120632 20.9309C-0.0312892 21.4961 0.0424931 22.0642 0.228791 22.5996C0.41509 23.135 0.709893 23.6262 1.09475 24.0424C1.47961 24.4586 1.94624 24.7909 2.46542 25.0184C2.98461 25.246 3.54519 25.364 4.11206 25.3649H15.9371C16.504 25.364 17.0647 25.246 17.584 25.0184C18.1032 24.7907 18.5699 24.4584 18.9548 24.042C19.3396 23.6257 19.6344 23.1344 19.8207 22.5989C20.0069 22.0634 20.0806 21.4952 20.0371 20.9299H20.0441ZM6.62006 4.96093C6.62006 4.05707 6.97912 3.19023 7.61824 2.55111C8.25737 1.91198 9.1242 1.55293 10.0281 1.55293C10.9319 1.55293 11.7988 1.91198 12.4379 2.55111C13.077 3.19023 13.4361 4.05707 13.4361 4.96093V5.06093H6.62006V4.96093ZM17.8721 23.0379C17.6264 23.3058 17.3274 23.5195 16.9944 23.6652C16.6614 23.8109 16.3016 23.8854 15.9381 23.8839H4.11906C3.75603 23.8837 3.39695 23.8086 3.06431 23.6632C2.73167 23.5178 2.43263 23.3053 2.18593 23.0389C1.93923 22.7726 1.75017 22.4582 1.6306 22.1155C1.51103 21.7727 1.46353 21.4089 1.49106 21.0469L2.61906 6.80993C2.62483 6.73741 2.65764 6.66971 2.71099 6.62026C2.76433 6.5708 2.83432 6.5432 2.90706 6.54293H5.13806V8.37093C5.13806 8.56745 5.21613 8.75593 5.3551 8.89489C5.49406 9.03386 5.68253 9.11193 5.87906 9.11193C6.07559 9.11193 6.26406 9.03386 6.40303 8.89489C6.54199 8.75593 6.62006 8.56745 6.62006 8.37093V6.54193H13.4351V8.37093C13.4351 8.56745 13.5131 8.75593 13.6521 8.89489C13.7911 9.03386 13.9795 9.11193 14.1761 9.11193C14.3726 9.11193 14.5611 9.03386 14.7 8.89489C14.839 8.75593 14.9171 8.56745 14.9171 8.37093V6.54193H17.1491C17.222 6.5427 17.292 6.57073 17.3453 6.62052C17.3986 6.6703 17.4313 6.73822 17.4371 6.81093L18.5671 21.0449C18.5965 21.4071 18.55 21.7715 18.4305 22.1147C18.311 22.4579 18.1201 22.7723 17.8721 23.0379Z" fill="#4D596E"/>
</svg>
