<svg xmlns="http://www.w3.org/2000/svg" width="21.889" height="16.941" viewBox="0 0 21.889 16.941">
  <g id="playstation-logotype" transform="translate(0 -12.063)">
    <g id="Group_4275" data-name="Group 4275" transform="translate(0 12.063)">
      <path id="Path_14282" data-name="Path 14282" d="M2.4,60.806l-.738.287C.555,61.565-.02,62.057,0,62.488c.062.636.779,1.108,2.092,1.456a12.715,12.715,0,0,0,5.209.287V62.447h0l-1.415.533a2.868,2.868,0,0,1-2.236.082c-.226-.144-.328-.492.287-.718l.779-.287L7.3,61.134V59.063l-.656.226Z" transform="translate(0 -49.423)" fill="#9290b1"/>
      <path id="Path_14283" data-name="Path 14283" d="M45.7,16.247v5.312a2.645,2.645,0,0,0,2.83.021A3.227,3.227,0,0,0,49.7,18.729a4.956,4.956,0,0,0-.923-3.3,6.233,6.233,0,0,0-3.117-1.948c-1.887-.615-3.487-1.149-4.758-1.415v15.9L44.328,29V15.8C44.308,15,45.7,15.057,45.7,16.247Z" transform="translate(-32.514 -12.063)" fill="#9290b1"/>
      <path id="Path_14284" data-name="Path 14284" d="M71.012,64.812c-.021-.554-.677-.984-1.846-1.374a10.263,10.263,0,0,0-3.671-.595,13.836,13.836,0,0,0-3.692.779v2.03l3.323-1.169a3.626,3.626,0,0,1,1.866-.144c.656.164.615.533-.041.759l-.759.308L61.8,66.986v2.072l2.051-.738,4.922-1.743.574-.267C70.54,65.879,71.073,65.407,71.012,64.812Z" transform="translate(-49.127 -52.424)" fill="#9290b1"/>
    </g>
  </g>
</svg>
