<svg xmlns="http://www.w3.org/2000/svg" width="21.486" height="23.121" viewBox="0 0 21.486 23.121">
  <g id="profile" transform="translate(0.1 0.1)">
    <g id="Union_1" data-name="Union 1" fill="#4d596e" stroke-miterlimit="10">
      <path d="M 20.52441215515137 22.97090339660645 C 20.50364112854004 22.97090339660645 20.48235130310059 22.97011375427246 20.46105194091797 22.96850204467773 C 19.73403167724609 22.91349220275879 19.64591217041016 22.34360313415527 19.64287185668945 21.91973304748535 C 19.64163208007812 21.7454719543457 19.64179229736328 21.57094383239746 19.6419506072998 21.39631271362305 C 19.64252090454102 20.75633239746094 19.64311218261719 20.09457206726074 19.57140159606934 19.45343208312988 C 19.27961158752441 16.84558296203613 17.10532188415527 14.77002334594727 14.51382160186768 14.6254825592041 C 14.08608150482178 14.60157299041748 13.62945175170898 14.59043312072754 13.07677173614502 14.59043312072754 C 12.67989158630371 14.59043312072754 12.27592182159424 14.59623241424561 11.88525104522705 14.60183334350586 C 11.4942512512207 14.6074333190918 11.08993148803711 14.61323261260986 10.69238185882568 14.61323261260986 L 10.64328193664551 14.61323261260986 L 10.64279365539551 14.58630275726318 C 10.30776977539062 14.58617401123047 9.972682952880859 14.5847635269165 9.637561798095703 14.58335304260254 C 9.286131858825684 14.58187294006348 8.93468189239502 14.58039283752441 8.58324146270752 14.58039283752441 C 8.098921775817871 14.58039283752441 7.697881698608398 14.58322334289551 7.321121692657471 14.58929252624512 C 4.015961647033691 14.64241313934326 1.687171459197998 17.00708198547363 1.657911539077759 20.3397331237793 C 1.656551480293274 20.52720260620117 1.656541466712952 20.71482276916504 1.656541466712952 20.90246200561523 C 1.656521439552307 21.31649208068848 1.656501531600952 21.74461364746094 1.641281485557556 22.1656322479248 C 1.623911499977112 22.64584350585938 1.330591440200806 22.94483375549316 0.8566614985466003 22.96541213989258 C 0.8403714895248413 22.96613311767578 0.8241514563560486 22.96648216247559 0.8081715106964111 22.96648216247559 C 0.3486914932727814 22.96651268005371 0.03125148266553879 22.67793273925781 -0.0005485156434588134 22.23127365112305 C -0.1179085150361061 20.59071350097656 -0.02688851580023766 19.29838371276855 0.2859114706516266 18.16422271728516 C 0.6673314571380615 16.78121376037598 1.380041480064392 15.65029335021973 2.464751482009888 14.70684242248535 C 3.780821561813354 13.56169319152832 5.213041305541992 12.96524333953857 6.721621513366699 12.93408298492432 C 6.976981639862061 12.92880249023438 7.232461452484131 12.92326259613037 7.488021373748779 12.91772270202637 C 8.679231643676758 12.89192295074463 9.911001205444336 12.86523246765137 11.12211132049561 12.86523246765137 C 12.485671043396 12.86523246765137 13.67583179473877 12.89986324310303 14.76060104370117 12.97110271453857 C 18.35152053833008 13.20637321472168 21.17145156860352 16.19732284545898 21.31998062133789 19.92831230163574 C 21.34596061706543 20.57881355285645 21.33438110351562 21.24087333679199 21.32319068908691 21.88112258911133 L 21.32196235656738 21.95125198364258 C 21.31064224243164 22.57068252563477 20.99758148193359 22.97090339660645 20.52441215515137 22.97090339660645 Z M 10.67140102386475 11.42195320129395 L 10.67139148712158 11.42195320129395 L 10.66943168640137 11.42195320129395 C 9.128181457519531 11.42120265960693 7.679401397705078 10.81798267364502 6.589961528778076 9.723423004150391 C 5.507741451263428 8.636102676391602 4.915271282196045 7.197922706604004 4.92168140411377 5.673802852630615 C 4.92764139175415 4.158722877502441 5.528031349182129 2.726072788238525 6.612251281738281 1.639782905578613 C 7.6965012550354 0.5534728765487671 9.125021934509277 -0.04663711786270142 10.63465118408203 -0.04999711737036705 L 10.64713191986084 -0.05000711977481842 C 12.16758155822754 -0.05000711977481842 13.6055212020874 0.5519728660583496 14.69606113433838 1.645042896270752 C 15.78674125671387 2.738252878189087 16.38740158081055 4.179943084716797 16.38740158081055 5.704533100128174 C 16.38740158081055 7.213512897491455 15.787841796875 8.644243240356445 14.69918155670166 9.733153343200684 C 13.6105318069458 10.82204246520996 12.18010139465332 11.42180252075195 10.67140102386475 11.42195320129395 Z M 10.65283107757568 1.629892826080322 C 8.432801246643066 1.62971293926239 6.618781566619873 3.445252895355225 6.609081268310547 5.677042961120605 C 6.604411602020264 6.754033088684082 7.023431301116943 7.771183013916016 7.788951396942139 8.541142463684082 C 8.552641868591309 9.309252738952637 9.564021110534668 9.733122825622559 10.63679122924805 9.734672546386719 L 10.64316177368164 9.734672546386719 C 12.85695171356201 9.734803199768066 14.67400169372559 7.926083087921143 14.69365119934082 5.702743053436279 C 14.70297145843506 4.638322830200195 14.28378105163574 3.623002767562866 13.51328182220459 2.843832969665527 C 12.74178123474121 2.063652992248535 11.72935104370117 1.632552862167358 10.6624813079834 1.629952907562256 L 10.65283107757568 1.629892826080322 Z" stroke="none"/>
      <path d="M 20.52441215515137 22.92090225219727 C 20.96826171875 22.92090225219727 21.26123237609863 22.53778266906738 21.27197074890137 21.95038223266602 C 21.28369140625 21.27716255187988 21.29687118530273 20.60272216796875 21.27002143859863 19.9303035736084 C 21.12500190734863 16.2875919342041 18.37842178344727 13.2582426071167 14.75732135772705 13.02099323272705 C 13.54894542694092 12.94163990020752 12.33637428283691 12.91523742675781 11.12211227416992 12.91523742675781 C 9.655900955200195 12.91523742675781 8.18736743927002 12.95375823974609 6.722651481628418 12.9840726852417 C 5.118161678314209 13.01721286773682 3.712401390075684 13.68750286102295 2.497561454772949 14.74457263946533 C 0.1948214769363403 16.74743270874023 -0.1528285145759583 19.40185356140137 0.0493214838206768 22.22772216796875 C 0.07949383556842804 22.65148735046387 0.3808822929859161 22.91651344299316 0.8081643581390381 22.91648483276367 C 0.8234254121780396 22.91648483276367 0.8389160633087158 22.91614532470703 0.8544914722442627 22.91546249389648 C 1.302731513977051 22.89599227905273 1.574711441993713 22.622802734375 1.591311454772949 22.16382217407227 C 1.613281488418579 21.55615234375 1.603511452674866 20.94732284545898 1.607911467552185 20.33929252624512 C 1.637211441993713 17.00189208984375 4.004391670227051 14.5925931930542 7.320311546325684 14.53930282592773 C 7.741338729858398 14.53251552581787 8.162240028381348 14.53039360046387 8.583243370056152 14.53039360046387 C 9.286195755004883 14.53039360046387 9.989205360412598 14.5363130569458 10.69189167022705 14.5363130569458 L 10.69238185882568 14.563232421875 C 11.48678207397461 14.563232421875 12.28231525421143 14.54043769836426 13.07677268981934 14.54043769836426 C 13.55730724334717 14.54043769836426 14.03757190704346 14.54878425598145 14.5166015625 14.57556247711182 C 17.14404106140137 14.72210311889648 19.32666206359863 16.81640243530273 19.62109184265137 19.44787216186523 C 19.71240234375 20.26422309875488 19.68701171875 21.09497261047363 19.69287109375 21.91937255859375 C 19.69678115844727 22.46515274047852 19.86133193969727 22.87298202514648 20.46484184265137 22.91864204406738 C 20.48486137390137 22.92016220092773 20.50488090515137 22.92090225219727 20.52441215515137 22.92090225219727 M 10.67139148712158 11.37195301055908 C 13.76318168640137 11.37164306640625 16.33740234375 8.796993255615234 16.33740234375 5.704533100128174 C 16.33740234375 2.579453468322754 13.76284790039062 -1.067382800101768e-05 10.64713287353516 -1.067382800101768e-05 C 10.64313411712646 -1.067382800101768e-05 10.63876152038574 -5.886230610485654e-06 10.63476181030273 2.880859483411768e-06 C 7.541011333465576 0.006892880890518427 4.983891487121582 2.56872296333313 4.971681594848633 5.674012660980225 C 4.958491325378418 8.808162689208984 7.520991325378418 11.37042331695557 10.66943168640137 11.37195301055908 C 10.67041110992432 11.37195301055908 10.67041110992432 11.37195301055908 10.67139148712158 11.37195301055908 M 10.65283107757568 1.579892873764038 C 10.65625190734863 1.579892873764038 10.65967178344727 1.579892873764038 10.66260147094727 1.579952836036682 C 12.89502143859863 1.585392832756042 14.76318168640137 3.473392963409424 14.74365139007568 5.703182697296143 C 14.7236499786377 7.965519905090332 12.89519786834717 9.784809112548828 10.64315700531006 9.784677505493164 C 10.64109325408936 9.784677505493164 10.63878631591797 9.784675598144531 10.63672161102295 9.784672737121582 C 8.388181686401367 9.78143310546875 6.54932165145874 7.92853307723999 6.559081554412842 5.676822662353516 C 6.568851470947266 3.429012775421143 8.417481422424316 1.579712867736816 10.65283107757568 1.579892873764038 M 20.52441215515137 23.02090263366699 C 20.50240135192871 23.02090263366699 20.47983169555664 23.02007293701172 20.45727157592773 23.01835250854492 C 19.60028076171875 22.95352363586426 19.59470176696777 22.17569351196289 19.59287071228027 21.92009353637695 C 19.59163093566895 21.74569320678711 19.5917911529541 21.57102203369141 19.59195137023926 21.39627265930176 C 19.59252166748047 20.7576732635498 19.59311103820801 20.09733200073242 19.5217113494873 19.45899200439453 C 19.23260116577148 16.87509346008301 17.07848167419434 14.81860256195068 14.51103115081787 14.67540264129639 C 14.0842113494873 14.65154266357422 13.62846183776855 14.6404333114624 13.07677173614502 14.6404333114624 C 12.680251121521 14.6404333114624 12.27646160125732 14.6462230682373 11.88596153259277 14.65182304382324 C 11.49479103088379 14.65743255615234 11.09029102325439 14.66323280334473 10.69238185882568 14.66323280334473 L 10.59418106079102 14.66323280334473 L 10.59369277954102 14.63627529144287 C 10.27496242523193 14.63603687286377 9.956157684326172 14.63469505310059 9.637341499328613 14.6333532333374 C 9.285991668701172 14.63187313079834 8.934611320495605 14.63039302825928 8.58324146270752 14.63039302825928 C 8.099091529846191 14.63039302825928 7.698301315307617 14.63322257995605 7.321921348571777 14.63929271697998 C 4.04548168182373 14.69194316864014 1.736911535263062 17.03623199462891 1.707911491394043 20.34017372131348 C 1.706551432609558 20.52744293212891 1.706541538238525 20.71494293212891 1.706541538238525 20.90247344970703 C 1.706521511077881 21.31694221496582 1.706501483917236 21.74552345275879 1.691241502761841 22.16743278503418 C 1.672831535339355 22.67654228210449 1.361651539802551 22.99353218078613 0.8588314652442932 23.01537322998047 C 0.8418014645576477 23.01611328125 0.824861466884613 23.01648330688477 0.8081614971160889 23.01648330688477 C 0.3204014897346497 23.01651382446289 -0.0166185162961483 22.70970344543457 -0.05042851716279984 22.23482322692871 C -0.1681985110044479 20.58843231201172 -0.0766485184431076 19.29074287414551 0.237711489200592 18.15093231201172 C 0.621831476688385 16.75814247131348 1.339571475982666 15.61923313140869 2.431931495666504 14.66912269592285 C 3.757071495056152 13.51607322692871 5.199991703033447 12.91550254821777 6.720581531524658 12.88409328460693 C 6.976231575012207 12.87880325317383 7.231991291046143 12.87326240539551 7.487841606140137 12.8677225112915 C 8.679021835327148 12.8419132232666 9.910761833190918 12.81523323059082 11.12211132049561 12.81523323059082 C 12.48670101165771 12.81523323059082 13.6779317855835 12.84989261627197 14.76387119293213 12.92120265960693 C 18.38039207458496 13.15815258026123 21.22039222717285 16.16970252990723 21.36994171142578 19.92632293701172 C 21.39597129821777 20.5782527923584 21.38439178466797 21.24103355407715 21.37318229675293 21.88200378417969 L 21.37195205688477 21.95212364196777 C 21.36008071899414 22.60141372680664 21.02740097045898 23.02090263366699 20.52441215515137 23.02090263366699 Z M 10.67140102386475 11.47195243835449 L 10.67139148712158 11.47195243835449 L 10.66943168640137 11.47195243835449 C 9.114761352539062 11.47119331359863 7.653411388397217 10.86275291442871 6.554521560668945 9.758692741394043 C 5.46286153793335 8.661892890930176 4.865211486816406 7.211102962493896 4.871681690216064 5.673593044281006 C 4.877691268920898 4.145262718200684 5.483271598815918 2.700142860412598 6.576861381530762 1.604462862014771 C 7.670531272888184 0.5087128877639771 9.111571311950684 -0.09660711884498596 10.63454151153564 -0.09999711811542511 L 10.64713191986084 -0.1000071167945862 C 12.18096160888672 -0.1000071167945862 13.63147163391113 0.5071929097175598 14.7314510345459 1.609732866287231 C 15.83155155181885 2.712382793426514 16.43740081787109 4.166613101959229 16.43740081787109 5.704533100128174 C 16.43740081787109 7.22687292098999 15.8326416015625 8.670143127441406 14.73453140258789 9.768503189086914 C 13.63645172119141 10.8668327331543 12.19346141815186 11.47180271148682 10.67140102386475 11.47195243835449 Z M 10.65282154083252 1.679892897605896 C 8.460251808166504 1.679712891578674 6.668661594390869 3.472922801971436 6.65908145904541 5.677252769470215 C 6.654471397399902 6.740862846374512 7.068321704864502 7.745422840118408 7.824401378631592 8.50588321685791 C 8.578661918640137 9.26451301574707 9.577481269836426 9.68314266204834 10.63686180114746 9.684673309326172 L 10.64316177368164 9.684673309326172 C 12.82963180541992 9.684812545776367 14.62424182891846 7.898323059082031 14.64365100860596 5.702302932739258 C 14.65286159515381 4.65129280090332 14.23879146575928 3.648622989654541 13.47773170471191 2.878992795944214 C 12.71566104888916 2.108342885971069 11.71581172943115 1.682522892951965 10.66236114501953 1.67995285987854 L 10.65283107757568 1.679892897605896 L 10.65282154083252 1.679892897605896 Z" stroke="none" fill="#4d596e"/>
    </g>
  </g>
</svg>
