<svg width="18" height="18" viewBox="0 0 18 18" fill="none" xmlns="http://www.w3.org/2000/svg">
<path d="M13.4942 6.04108C13.2172 5.74893 12.7552 5.73607 12.4626 6.01384L7.80405 10.4319L5.58203 8.15049C5.3006 7.86176 4.83918 7.85543 4.55019 8.13689C4.26146 8.41807 4.25537 8.87999 4.53655 9.16872L7.26088 11.9658C7.40365 12.1125 7.59339 12.1864 7.78362 12.1864C7.96411 12.1864 8.1446 12.1197 8.28593 11.9862L13.467 7.07271C13.7594 6.7954 13.7717 6.33348 13.4942 6.04108Z" fill="white"/>
<path d="M9 0C4.03734 0 0 4.03734 0 9C0 13.9627 4.03734 18 9 18C13.9627 18 18 13.9627 18 9C18 4.03734 13.9627 0 9 0ZM9 16.5406C4.84225 16.5406 1.45944 13.158 1.45944 9C1.45944 4.84225 4.84221 1.45944 9 1.45944C13.158 1.45944 16.5406 4.84221 16.5406 9C16.5406 13.158 13.158 16.5406 9 16.5406Z" fill="white"/>
</svg>
