<svg width="23" height="23" viewBox="0 0 23 23" fill="none" xmlns="http://www.w3.org/2000/svg">
<path d="M22.5646 11.2908C22.5646 14.28 21.3771 17.1469 19.2634 19.2606C17.1496 21.3743 14.2828 22.5618 11.2936 22.5618C10.6376 22.562 9.9828 22.5055 9.33656 22.3928C9.21912 22.377 9.10607 22.3377 9.00418 22.2773C8.90228 22.2168 8.81362 22.1364 8.74352 22.0408C8.67342 21.9453 8.62331 21.8366 8.59619 21.7213C8.56907 21.6059 8.5655 21.4863 8.58569 21.3695C8.60588 21.2528 8.64942 21.1413 8.71369 21.0417C8.77797 20.9422 8.86167 20.8566 8.95977 20.7902C9.05788 20.7237 9.16839 20.6778 9.28468 20.655C9.40096 20.6323 9.52065 20.6332 9.63656 20.6578C11.0042 20.8976 12.4078 20.8353 13.7488 20.4753C15.0899 20.1153 16.3359 19.4663 17.3996 18.5738C18.4633 17.6813 19.3189 16.5669 19.9064 15.3088C20.4939 14.0507 20.7991 12.6793 20.8006 11.2908C20.8022 10.8591 20.7748 10.4278 20.7186 9.99979C20.6954 9.7724 20.7615 9.5449 20.9029 9.36532C21.0443 9.18575 21.25 9.06817 21.4764 9.03741C21.7029 9.00665 21.9325 9.06511 22.1167 9.20047C22.3009 9.33582 22.4253 9.53745 22.4636 9.76279C22.531 10.269 22.5644 10.7791 22.5636 11.2898L22.5646 11.2908ZM17.9186 4.96879C16.3421 7.61115 14.4183 10.0301 12.1986 12.1608C10.054 14.3964 7.60972 16.3238 4.93556 17.8878C4.36401 18.2068 3.6904 18.2897 3.05856 18.1188C2.42463 17.95 1.88344 17.5368 1.55356 16.9698C0.296324 14.8147 -0.21048 12.3033 0.112548 9.82929C0.435576 7.35524 1.57019 5.05823 3.33862 3.29814C5.10706 1.53806 7.4094 0.414327 9.88495 0.103009C12.3605 -0.20831 14.8694 0.310372 17.0186 1.57779C17.5823 1.91295 17.9923 2.4557 18.1606 3.08963C18.3288 3.72356 18.2419 4.39818 17.9186 4.96879ZM16.1186 3.09379C14.654 2.23689 12.9884 1.78349 11.2916 1.77979C9.61885 1.78011 7.97579 2.22148 6.52807 3.05938C5.08035 3.89729 3.87916 5.10211 3.04563 6.55235C2.21209 8.00259 1.77569 9.64698 1.78042 11.3197C1.78514 12.9924 2.23084 14.6343 3.07256 16.0798C3.17296 16.2463 3.33406 16.3672 3.52192 16.4172C3.70977 16.4672 3.90971 16.4423 4.07956 16.3478C6.60941 14.8634 8.92139 13.0357 10.9496 10.9168C13.0565 8.89866 14.8834 6.60727 16.3816 4.10379C16.478 3.93437 16.5044 3.73399 16.4553 3.54534C16.4062 3.3567 16.2854 3.19468 16.1186 3.09379ZM3.25256 22.4578C4.41914 22.1793 5.53914 21.7329 6.57756 21.1328C9.59071 19.4005 12.3501 17.2603 14.7776 14.7728C17.265 12.3454 19.4053 9.58594 21.1376 6.57279C21.7377 5.53437 22.184 4.41437 22.4626 3.24779C22.608 2.79844 22.6371 2.31951 22.547 1.85586C22.457 1.3922 22.2507 0.958995 21.9476 0.596792C21.6745 0.350392 21.3467 0.172539 20.9913 0.077943C20.6358 -0.016653 20.263 -0.0252742 19.9036 0.0527922C19.6774 0.089608 19.4745 0.213062 19.3379 0.396969C19.2013 0.580877 19.1417 0.810772 19.1717 1.03789C19.2018 1.26502 19.3191 1.4715 19.4989 1.61355C19.6786 1.7556 19.9066 1.82205 20.1346 1.79879C20.5146 1.74879 20.6736 1.81379 20.7026 1.84279C20.7736 1.91379 20.8716 2.22579 20.7346 2.90179C20.4876 3.89466 20.1018 4.84773 19.5886 5.73279C17.9369 8.59705 15.898 11.2198 13.5296 13.5268C11.2225 15.8953 8.59983 17.9341 5.73556 19.5858C4.85019 20.0991 3.89678 20.485 2.90356 20.7318C2.22856 20.8688 1.91556 20.7708 1.84456 20.6998C1.77356 20.6288 1.75556 20.4258 1.81356 20.0718C1.84585 19.8439 1.78767 19.6124 1.65148 19.4269C1.51529 19.2414 1.31189 19.1165 1.08481 19.079C0.857727 19.0415 0.624985 19.0943 0.436373 19.2262C0.247761 19.3582 0.118256 19.5586 0.0755623 19.7848C-0.021882 20.1601 -0.0251287 20.5536 0.0661106 20.9304C0.15735 21.3072 0.34025 21.6557 0.598562 21.9448C0.825528 22.1572 1.09319 22.3213 1.38537 22.4274C1.67756 22.5334 1.98821 22.5792 2.29856 22.5618C2.61922 22.5588 2.93879 22.5239 3.25256 22.4578Z" fill="#252836"/>
</svg>
