<svg width="28" height="18" viewBox="0 0 28 18" fill="none" xmlns="http://www.w3.org/2000/svg">
<path d="M26.0399 7.50866L25.3148 4.60831C25.5131 4.5662 25.6618 4.39032 25.6618 4.17961V3.71198C25.6618 2.69665 24.8358 1.87064 23.8205 1.87064H20.5178V0.906064C20.5178 0.406438 20.1114 0 19.6117 0H2.7766C2.27697 0 1.87053 0.406438 1.87053 0.906064V8.856C1.87053 9.0981 2.06681 9.29443 2.30897 9.29443C2.55107 9.29443 2.7474 9.09816 2.7474 8.856V0.906064C2.7474 0.889932 2.76047 0.876861 2.7766 0.876861H19.6117C19.6278 0.876861 19.6409 0.889932 19.6409 0.906064V8.85611C19.6409 9.09822 19.8372 9.29454 20.0793 9.29454C20.3214 9.29454 20.5178 9.09827 20.5178 8.85611V8.35911H25.6895C25.6899 8.35911 25.6903 8.35922 25.6907 8.35922C25.6911 8.35922 25.6915 8.35917 25.6919 8.35917C26.3283 8.3596 26.8686 8.77731 27.0542 9.35289H25.691C25.4489 9.35289 25.2526 9.54917 25.2526 9.79132V10.7266C25.2526 11.4841 25.8688 12.1003 26.6262 12.1003H27.1231V14.0293H25.9768C25.6002 12.9419 24.5665 12.1587 23.3528 12.1587C22.139 12.1587 21.1053 12.9419 20.7287 14.0293H20.5176V10.7265C20.5176 10.4844 20.3214 10.2881 20.0792 10.2881C19.8371 10.2881 19.6408 10.4844 19.6408 10.7265V14.0292H10.5447C10.1681 12.9418 9.13447 12.1586 7.92068 12.1586C6.70689 12.1586 5.67318 12.9418 5.29666 14.0292H2.7766C2.76047 14.0292 2.7474 14.0161 2.7474 14V13.0354H4.64719C4.88929 13.0354 5.08562 12.8392 5.08562 12.597C5.08562 12.3549 4.88935 12.1586 4.64719 12.1586H0.438431C0.196329 12.1586 0 12.3549 0 12.597C0 12.8392 0.196274 13.0354 0.438431 13.0354H1.87059V14C1.87059 14.4996 2.27703 14.906 2.77665 14.906H5.14485C5.14474 14.9158 5.14408 14.9255 5.14408 14.9352C5.14408 16.4663 6.3897 17.7118 7.92068 17.7118C9.45166 17.7118 10.6973 16.4663 10.6973 14.9352C10.6973 14.9254 10.6966 14.9158 10.6965 14.906H20.5769C20.5768 14.9158 20.5762 14.9255 20.5762 14.9352C20.5762 16.4663 21.8218 17.7118 23.3528 17.7118C24.8837 17.7118 26.1294 16.4663 26.1294 14.9352C26.1294 14.9254 26.1287 14.9158 26.1286 14.906H27.5616C27.8037 14.906 28 14.7098 28 14.4676V9.79122C28.0001 8.63665 27.1482 7.67738 26.0399 7.50866ZM20.5178 2.74745H23.8205C24.3523 2.74745 24.785 3.18014 24.785 3.71198V3.74118H20.5178V2.74745ZM20.5178 7.4823V4.61799H24.4135L25.1296 7.4823H20.5178ZM7.92068 16.8351C6.87314 16.8351 6.02089 15.9829 6.02089 14.9354C6.02089 13.8878 6.87314 13.0356 7.92068 13.0356C8.96822 13.0356 9.82047 13.8878 9.82047 14.9354C9.82047 15.9829 8.96822 16.8351 7.92068 16.8351ZM23.3529 16.8351C22.3053 16.8351 21.4531 15.9829 21.4531 14.9354C21.4531 13.8878 22.3053 13.0356 23.3529 13.0356C24.4004 13.0356 25.2527 13.8878 25.2527 14.9354C25.2527 15.9829 24.4004 16.8351 23.3529 16.8351ZM27.1232 11.2234H26.6264C26.3524 11.2234 26.1295 11.0005 26.1295 10.7265V10.2296H27.1232V11.2234H27.1232Z" fill="#C2B7CD"/>
<path d="M7.92065 14.0293C7.42103 14.0293 7.01459 14.4357 7.01459 14.9354C7.01459 15.435 7.42103 15.8414 7.92065 15.8414C8.42028 15.8414 8.82672 15.435 8.82672 14.9354C8.82672 14.4357 8.42028 14.0293 7.92065 14.0293Z" fill="#C2B7CD"/>
<path d="M23.3529 14.0293C22.8533 14.0293 22.4468 14.4357 22.4468 14.9354C22.4468 15.435 22.8533 15.8414 23.3529 15.8414C23.8525 15.8414 24.259 15.435 24.259 14.9354C24.259 14.4357 23.8525 14.0293 23.3529 14.0293Z" fill="#C2B7CD"/>
<path d="M18.2087 12.1592H11.6618C11.4197 12.1592 11.2233 12.3555 11.2233 12.5976C11.2233 12.8398 11.4196 13.036 11.6618 13.036H18.2087C18.4508 13.036 18.6472 12.8398 18.6472 12.5976C18.6472 12.3555 18.4509 12.1592 18.2087 12.1592Z" fill="#C2B7CD"/>
<path d="M6.98539 10.2881H1.37367C1.13157 10.2881 0.935242 10.4844 0.935242 10.7265C0.935242 10.9687 1.13152 11.1649 1.37367 11.1649H6.98539C7.22749 11.1649 7.42382 10.9687 7.42382 10.7265C7.42382 10.4844 7.22749 10.2881 6.98539 10.2881Z" fill="#C2B7CD"/>
<path d="M15.2452 4.33736C15.0741 4.16618 14.7964 4.16618 14.6252 4.33741L10.7264 8.23615L8.69824 6.20795C8.52702 6.03672 8.24942 6.03672 8.07825 6.20795C7.90702 6.37917 7.90702 6.65671 8.07825 6.82794L10.4165 9.16616C10.5021 9.2518 10.6143 9.29457 10.7264 9.29457C10.8386 9.29457 10.9509 9.2518 11.0364 9.16616L15.2452 4.9574C15.4164 4.78612 15.4164 4.50858 15.2452 4.33736Z" fill="#C2B7CD"/>
</svg>
